<svg width="148" height="26" viewBox="0 0 148 26" fill="none" xmlns="http://www.w3.org/2000/svg">
<g clip-path="url(#clip0_57_2736)">
<path fill-rule="evenodd" clip-rule="evenodd" d="M66.4769 6.03238C66.4477 5.96801 66.401 5.91313 66.3421 5.87398C66.2832 5.83484 66.2146 5.813 66.144 5.81097H65.9592C65.8873 5.80737 65.8162 5.82693 65.7563 5.86679C65.6963 5.90664 65.6507 5.96469 65.6263 6.03238L59.3458 19.667C59.3161 19.7223 59.3018 19.7846 59.3042 19.8473C59.3067 19.91 59.3259 19.971 59.3599 20.0238C59.3938 20.0766 59.4413 20.1193 59.4973 20.1477C59.5534 20.1759 59.616 20.1887 59.6787 20.1847H61.4514C61.5815 20.1932 61.7106 20.1576 61.8179 20.0836C61.9252 20.0096 62.0043 19.9015 62.0424 19.7769L63.0395 17.5979H69.1002L70.0974 19.7769C70.2455 20.0732 70.3936 20.1847 70.6883 20.1847H72.4627C72.7574 20.1847 72.9406 19.925 72.794 19.667L66.4769 6.03238ZM63.9634 15.3409L65.9592 10.9064H66.0325L68.0649 15.3409H63.9634ZM38.0025 5.87397C38.0614 5.9131 38.1081 5.96798 38.1373 6.03235L44.4481 19.667C44.5946 19.925 44.4114 20.1847 44.1167 20.1847H42.3423C42.0477 20.1847 41.8996 20.0732 41.7514 19.7769L40.7543 17.5979H34.7015L33.7029 19.7769C33.6647 19.9015 33.5856 20.0096 33.4784 20.0836C33.371 20.1576 33.2419 20.1932 33.1119 20.1847H31.3391C31.2764 20.1887 31.2138 20.1759 31.1578 20.1476C31.1017 20.1193 31.0542 20.0766 31.0203 20.0238C30.9863 19.971 30.9671 19.91 30.9646 19.8473C30.9622 19.7846 30.9765 19.7223 31.0062 19.667L37.2867 6.03235C37.3114 5.96481 37.357 5.90691 37.4168 5.86709C37.4768 5.82726 37.5478 5.8076 37.6196 5.81095H37.8044C37.8751 5.81299 37.9436 5.83482 38.0025 5.87397ZM37.6196 10.9064L35.6238 15.3408H39.7301L37.6929 10.9064H37.6196ZM55.5389 6.03234H57.3866C57.4358 6.02929 57.4851 6.03678 57.5313 6.05429C57.5774 6.07181 57.6193 6.09894 57.6541 6.13392C57.6889 6.16888 57.7159 6.21087 57.7332 6.25707C57.7505 6.30328 57.7578 6.35265 57.7545 6.40188V19.9998C57.7541 20.0978 57.715 20.1915 57.6459 20.2607C57.5766 20.3299 57.4829 20.369 57.385 20.3694H56.9072L48.4461 11.0944H48.4094V19.7768C48.409 19.8748 48.3699 19.9685 48.3007 20.0377C48.2315 20.1069 48.1378 20.146 48.0399 20.1464H46.1922C46.0963 20.14 46.0059 20.0991 45.938 20.0311C45.87 19.9632 45.829 19.8728 45.8227 19.7768V6.18048C45.8231 6.0826 45.8621 5.98885 45.9313 5.91964C46.0006 5.85043 46.0943 5.81136 46.1922 5.81094H46.7082L55.1328 14.7531H55.1709V6.40188C55.1709 6.30415 55.2097 6.21039 55.2786 6.14114C55.3476 6.07189 55.4412 6.03277 55.5389 6.03234ZM83.51 16.4654C83.6048 16.4654 83.6971 16.4999 83.7686 16.5626L84.9867 17.8559C85.0532 17.9354 85.0865 18.0372 85.0798 18.1403C85.0723 18.2435 85.0266 18.3401 84.9501 18.4102C83.6364 19.6879 81.8693 20.3924 80.0366 20.3694C79.0807 20.3694 78.1341 20.1811 77.2509 19.8153C76.3678 19.4495 75.5653 18.9133 74.8894 18.2374C74.2135 17.5614 73.6772 16.759 73.3115 15.8758C72.9456 14.9927 72.7573 14.0461 72.7573 13.0901C72.7573 12.1342 72.9456 11.1877 73.3115 10.3045C73.6772 9.4214 74.2135 8.61892 74.8894 7.94297C75.5653 7.26704 76.3678 6.73085 77.2509 6.36504C78.1341 5.99923 79.0807 5.81094 80.0366 5.81094C82.069 5.81094 83.5474 6.47674 84.9135 7.69526C84.9551 7.72741 84.9892 7.76801 85.0141 7.81436C85.0391 7.86072 85.0532 7.91178 85.0565 7.96417C85.0607 8.01656 85.0524 8.06908 85.0341 8.11828C85.0158 8.16748 84.9875 8.21223 84.9501 8.24956L83.732 9.50629C83.6988 9.54147 83.6588 9.5694 83.614 9.58853C83.5699 9.60765 83.5217 9.61754 83.4734 9.61754C83.4244 9.61754 83.377 9.60765 83.3321 9.58853C83.288 9.5694 83.2473 9.54147 83.214 9.50629C82.3541 8.75377 81.2527 8.33446 80.1098 8.32442C77.5247 8.32442 75.6022 10.505 75.6022 13.0536C75.6022 15.5654 77.5613 17.7077 80.1481 17.7077C81.2857 17.7076 82.386 17.3015 83.2506 16.5626C83.3229 16.4999 83.4144 16.4654 83.51 16.4654ZM93.3387 5.81101C91.9003 5.81072 90.4943 6.23646 89.2978 7.03451C88.1013 7.83256 87.1676 8.96718 86.6155 10.2951C86.0634 11.623 85.9171 13.0848 86.1948 14.496C86.4725 15.907 87.1618 17.2043 88.1762 18.2239C89.1906 19.2435 90.4843 19.9399 91.8936 20.225C93.303 20.5101 94.7655 20.3712 96.0967 19.826C97.4278 19.2807 98.5669 18.3534 99.371 17.1611C100.176 15.9689 100.609 14.5651 100.616 13.1269C100.626 12.1668 100.444 11.2144 100.082 10.3251C99.7193 9.43579 99.1847 8.62732 98.5071 7.94662C97.8303 7.26592 97.0246 6.72659 96.1374 6.35996C95.2502 5.99335 94.2982 5.80674 93.3387 5.81101ZM93.3387 17.7461C92.1231 17.7235 90.9657 17.2251 90.1143 16.3578C89.2629 15.4906 88.7856 14.3239 88.7856 13.1086C88.7856 11.8933 89.2629 10.7265 90.1143 9.85933C90.9657 8.99204 92.1231 8.49356 93.3387 8.47104C93.9548 8.45962 94.5668 8.57113 95.1397 8.79905C95.7125 9.02696 96.2339 9.36678 96.6737 9.79855C97.1135 10.2303 97.4628 10.7454 97.7014 11.3137C97.94 11.882 98.0622 12.4922 98.0622 13.1086C98.0622 13.7249 97.94 14.3351 97.7014 14.9034C97.4628 15.4717 97.1135 15.9869 96.6737 16.4186C96.2339 16.8503 95.7125 17.1902 95.1397 17.4181C94.5668 17.646 93.9548 17.7575 93.3387 17.7461ZM112.551 6.03234H114.399C114.494 6.03944 114.583 6.08074 114.651 6.14863C114.718 6.21654 114.759 6.30647 114.765 6.40188V19.9998C114.765 20.0978 114.726 20.1915 114.657 20.2607C114.587 20.3299 114.494 20.369 114.395 20.3694H113.917L105.456 11.0944H105.42V19.7768C105.42 19.8748 105.381 19.9685 105.311 20.0377C105.242 20.1069 105.148 20.146 105.051 20.1464H103.202C103.107 20.14 103.016 20.0991 102.949 20.0311C102.881 19.9632 102.84 19.8728 102.833 19.7768V6.18048C102.833 6.0826 102.872 5.98885 102.942 5.91964C103.011 5.85043 103.105 5.81136 103.202 5.81094H103.72L112.145 14.7531H112.181V6.40188C112.182 6.304 112.221 6.21025 112.29 6.14104C112.359 6.07183 112.453 6.03277 112.551 6.03234ZM122.491 6.03293H117.686C117.591 6.03928 117.5 6.08025 117.432 6.14823C117.364 6.2162 117.323 6.30654 117.316 6.40246V19.7822C117.317 19.8801 117.356 19.9739 117.425 20.0431C117.494 20.1122 117.588 20.1513 117.686 20.1517H122.491C124.371 20.1517 126.176 19.4045 127.506 18.0744C128.837 16.7442 129.585 14.9402 129.585 13.0589C129.585 9.21063 126.407 6.03293 122.491 6.03293ZM122.269 17.7083H119.94V8.46995H122.239C124.862 8.46995 126.783 10.4658 126.783 13.0891C126.813 15.7141 124.893 17.7083 122.269 17.7083ZM136.862 6.10237L143.105 19.7035C143.132 19.7543 143.146 19.8108 143.146 19.868C143.146 19.9254 143.132 19.9819 143.106 20.0328C143.079 20.0836 143.041 20.1273 142.994 20.1601C142.947 20.193 142.892 20.2139 142.836 20.2212H141.063C140.766 20.2212 140.62 20.1097 140.472 19.815L139.473 17.6345H133.42L132.423 19.815C132.384 19.939 132.305 20.0465 132.198 20.1201C132.091 20.1937 131.962 20.2293 131.832 20.2212H130.058C129.995 20.2247 129.933 20.2116 129.877 20.1832C129.822 20.1547 129.774 20.1121 129.74 20.0594C129.707 20.0068 129.688 19.9461 129.684 19.8836C129.682 19.8211 129.696 19.759 129.725 19.7035L136.013 6.10237C136.038 6.03454 136.083 5.97635 136.143 5.93646C136.203 5.89657 136.275 5.8771 136.346 5.88096H136.531C136.601 5.88236 136.67 5.90394 136.729 5.94319C136.788 5.98242 136.834 6.03767 136.862 6.10237ZM136.383 10.9096L134.387 15.3407H138.485L136.456 10.9096H136.383ZM145.62 19.9612H145.732C145.751 19.96 145.768 19.9519 145.781 19.9385C145.796 19.9249 145.803 19.907 145.805 19.8879V19.5183H146.026L146.174 19.9245C146.174 19.9612 146.21 19.9612 146.247 19.9612H146.395C146.415 19.9601 146.432 19.952 146.447 19.9385C146.461 19.9251 146.469 19.9071 146.471 19.8879C146.432 19.8313 146.404 19.7658 146.376 19.7003C146.348 19.6367 146.322 19.5732 146.285 19.5183C146.363 19.4929 146.43 19.4432 146.476 19.3766C146.522 19.3099 146.546 19.23 146.544 19.1488C146.546 19.0948 146.538 19.0407 146.518 18.9902C146.499 18.9396 146.469 18.8938 146.431 18.8555C146.393 18.8172 146.347 18.7874 146.296 18.7679C146.245 18.7486 146.191 18.7399 146.137 18.7427H145.659C145.641 18.7437 145.623 18.7519 145.609 18.7654C145.595 18.7788 145.588 18.7969 145.586 18.8159V19.8879C145.584 19.9327 145.584 19.9501 145.592 19.9568C145.597 19.9612 145.605 19.9612 145.62 19.9612ZM145.805 18.9641H146.101C146.121 18.9623 146.141 18.965 146.159 18.9718C146.178 18.9787 146.195 18.9895 146.209 19.0037C146.223 19.0179 146.234 19.0349 146.24 19.0536C146.247 19.0724 146.25 19.0924 146.247 19.1122C146.245 19.1503 146.229 19.1863 146.201 19.2135C146.175 19.2407 146.139 19.2573 146.101 19.2603H145.812L145.805 18.9641ZM146.444 20.4689C146.299 20.5277 146.145 20.557 145.989 20.5551C145.756 20.5551 145.527 20.4858 145.332 20.356C145.139 20.2262 144.987 20.0417 144.898 19.8258C144.808 19.61 144.785 19.3724 144.83 19.1432C144.875 18.9139 144.988 18.7034 145.153 18.538C145.318 18.3727 145.529 18.26 145.757 18.2142C145.987 18.1685 146.225 18.1916 146.441 18.2808C146.656 18.37 146.842 18.5212 146.971 18.7154C147.101 18.9095 147.171 19.1379 147.171 19.3716C147.173 19.5275 147.144 19.6822 147.085 19.8266C147.027 19.9711 146.94 20.1023 146.83 20.2126C146.719 20.3229 146.589 20.4101 146.444 20.4689ZM146.521 18.5355C146.363 18.4305 146.178 18.3745 145.989 18.3745V18.3681C145.737 18.3738 145.495 18.4773 145.317 18.6566C145.14 18.8359 145.037 19.0774 145.034 19.3302C145.034 19.5192 145.09 19.704 145.194 19.8611C145.3 20.0183 145.449 20.1408 145.623 20.2131C145.798 20.2854 145.99 20.3044 146.176 20.2675C146.361 20.2306 146.531 20.1396 146.665 20.006C146.798 19.8723 146.89 19.702 146.926 19.5167C146.964 19.3312 146.945 19.1391 146.872 18.9644C146.8 18.7898 146.678 18.6406 146.521 18.5355Z" fill="white"/>
<path fill-rule="evenodd" clip-rule="evenodd" d="M12.7541 0.52832C12.2763 0.52832 11.7985 0.564955 11.3492 0.60159C12.0176 1.05603 12.6478 1.56423 13.2336 2.12115L13.7114 2.56555L13.2336 3.0434C12.812 3.43551 12.4172 3.85535 12.0517 4.30014V4.33678C11.986 4.40708 11.9243 4.48099 11.8669 4.55818C12.1616 4.52769 12.4579 4.51546 12.7541 4.52154C14.9879 4.55212 17.1199 5.46096 18.6887 7.05142C20.2576 8.64188 21.1371 10.786 21.1371 13.0201C21.1371 15.2541 20.2576 17.3982 18.6887 18.9887C17.1199 20.5792 14.9879 21.488 12.7541 21.5186C11.1868 21.5277 9.64913 21.0919 8.31971 20.2619C7.68202 20.3355 7.04066 20.3728 6.39874 20.3734C6.10249 20.3797 5.80614 20.367 5.51154 20.3351C5.54575 21.3366 5.63242 22.3356 5.77117 23.328C7.82739 24.7346 10.2628 25.4824 12.7541 25.4721C14.3919 25.4721 16.0137 25.1494 17.5269 24.5226C19.0401 23.8959 20.415 22.9772 21.573 21.8191C22.7312 20.661 23.6498 19.2861 24.2766 17.7729C24.9034 16.2598 25.226 14.638 25.226 13.0001C25.226 11.3623 24.9034 9.74057 24.2766 8.2274C23.6498 6.71425 22.7312 5.33936 21.573 4.18124C20.415 3.02312 19.0401 2.10445 17.5269 1.47768C16.0137 0.850915 14.3919 0.52832 12.7541 0.52832ZM5.99244 2.52349C6.84555 1.96976 7.76354 1.52306 8.72571 1.19348C8.41142 1.76938 8.12696 2.36111 7.87357 2.9663C7.2553 2.78363 6.62727 2.6358 5.99244 2.52349ZM5.29126 7.05825C5.79002 7.02496 6.26395 6.99333 6.76818 6.99333C6.24564 7.49313 5.79771 8.06551 5.43817 8.69288C5.30395 8.15838 5.20498 7.61566 5.14191 7.06819L5.29126 7.05825ZM4.84724 19.5942V19.6675L4.73575 19.634C3.78502 19.5537 2.84446 19.3804 1.9276 19.1164L1.85432 19.0798L1.89096 19.0049C2.17456 18.121 2.51999 17.2582 2.9247 16.4229L2.96293 16.348L3.0362 16.3847C3.6578 16.7396 4.29916 17.0587 4.95716 17.3404L5.03201 17.377V17.4503C4.91364 18.1589 4.85186 18.8758 4.84724 19.5942ZM4.84722 20.3314V20.2581H4.77236C3.96387 20.1739 3.16158 20.0383 2.37037 19.852L2.14896 19.8153L2.26046 20C2.98416 21.0877 3.86868 22.0592 4.88385 22.8815L5.03199 23.0296V22.77C4.9191 21.9618 4.85739 21.1473 4.84722 20.3314ZM11.8668 2.6336C11.6088 2.89324 11.3491 3.1879 11.0911 3.48417C11.0593 3.52081 10.8697 3.74221 10.6467 4.04007C10.1303 3.79464 9.60099 3.58337 9.07642 3.37398L8.98537 3.33763C9.27722 2.62228 9.62277 1.93007 10.0191 1.26695C10.6586 1.68975 11.2754 2.14593 11.8668 2.6336ZM2.63005 10.6158L2.66668 10.689L2.73995 10.6524C3.3216 10.2369 3.92624 9.85456 4.551 9.50718L4.62426 9.47051V9.39568C4.43275 8.68147 4.29696 7.95349 4.2181 7.21828V7.14341H4.14483C3.22568 7.31107 2.32286 7.55836 1.44657 7.88249L1.3733 7.91912L1.40994 7.99399C1.70226 8.91676 2.11234 9.79794 2.63005 10.6158ZM2.40858 11.8713L2.48185 11.798L2.52645 11.9031C2.92819 12.4674 3.35994 13.0098 3.81982 13.5278L3.85646 13.5645L3.81982 13.6393C3.41436 14.1829 3.04204 14.7505 2.70485 15.3389L2.6682 15.4121L2.59493 15.3755C1.87389 14.9008 1.18239 14.3827 0.524259 13.824L0.449396 13.7492L0.524259 13.6823C1.10563 13.0318 1.73555 12.4264 2.40858 11.8713ZM7.3958 19.705H7.61721L7.43244 19.5568C6.76243 19.0161 6.18793 18.3667 5.73289 17.6359V17.5992L5.58636 17.5244V17.6359C5.49835 18.2854 5.44889 18.9396 5.43822 19.595V19.6683H5.51149C5.65962 19.6683 5.80736 19.6774 5.95509 19.6866C6.10282 19.6958 6.25056 19.705 6.39869 19.705H7.3958ZM7.50727 4.076C7.29597 4.66793 7.12305 5.27287 6.9896 5.88705C6.34775 5.88498 5.70633 5.92062 5.06865 5.99377C5.02619 5.18099 5.03843 4.36628 5.10528 3.55514C5.91717 3.67225 6.71981 3.8463 7.50727 4.076ZM8.17146 5.84754C8.72421 5.51321 9.30582 5.22908 9.90921 4.99856C9.47893 4.78279 9.03393 4.59756 8.57763 4.44426C8.43112 4.88706 8.28296 5.36809 8.17146 5.84754ZM2.29871 15.9792H2.37039L2.33534 16.1258C2.00219 16.7993 1.70602 17.4906 1.44814 18.1964L1.37487 18.3812L1.3016 18.1964C0.790339 17.0979 0.453396 15.9264 0.302895 14.7241L0.26626 14.5011L0.451028 14.6492C1.04247 15.1255 1.65927 15.5695 2.29871 15.9792ZM3.96003 4.1492C3.21723 4.88939 2.57172 5.72117 2.03908 6.62446C2.66196 6.44107 3.3225 6.29534 3.98176 6.14989L3.99667 6.14661C3.96003 5.47921 3.96003 4.815 3.96003 4.1492ZM4.32955 12.6844V12.9057L4.22442 12.7194C3.94415 12.4113 3.68587 12.0602 3.4322 11.7153C3.35144 11.6055 3.27106 11.4963 3.19068 11.3894L3.07919 11.3145L3.15405 11.2779C3.61277 10.9582 4.07149 10.674 4.53021 10.3896L4.58759 10.354L4.77236 10.2441L4.69909 10.4671C4.48059 11.1871 4.35638 11.9324 4.32955 12.6844ZM4.4395 14.1999L4.40286 13.9785L4.29295 14.1633C3.96005 14.6411 3.62715 15.1604 3.33725 15.678L3.29903 15.7514L3.3739 15.7879C3.87571 16.0761 4.41366 16.328 4.95262 16.5804L4.99858 16.6019L5.18335 16.6752L5.11008 16.4905C4.77578 15.7638 4.54985 14.9921 4.4395 14.1999ZM2.07571 11.1631L2.00085 11.1998C1.39737 11.6504 0.851694 12.1735 0.37616 12.7575L0.228027 12.9057V12.6843C0.255991 11.4918 0.455001 10.3095 0.818966 9.17368L0.893833 8.95226L0.967101 9.13701C1.28785 9.80692 1.64572 10.4583 2.03907 11.0883L2.07571 11.1631Z" fill="#43B049"/>
</g>
<defs>
<clipPath id="clip0_57_2736">
<rect width="148" height="24.9438" fill="white" transform="translate(0 0.52832)"/>
</clipPath>
</defs>
</svg>
