<svg width="29" height="30" viewBox="0 0 29 30" fill="none" xmlns="http://www.w3.org/2000/svg">
<path d="M24.9826 14.8853C24.9617 12.9231 24.3609 11.011 23.256 9.38938L21.7086 10.6878C22.5091 11.9219 22.9197 13.3136 22.9744 14.7167L24.9826 14.8853ZM20.8544 20.451L22.1528 21.9984C23.564 20.5532 24.4516 18.7641 24.8076 16.8858L22.8006 16.7032C22.5021 18.1052 21.8295 19.4003 20.8544 20.451ZM15.2934 23.0025L15.1172 25.0171C17.079 24.9942 18.9906 24.3937 20.6131 23.2904L19.3146 21.743C18.112 22.5171 16.7227 22.9522 15.2934 23.0025ZM9.55909 20.8824L8.01168 22.1809C9.45689 23.592 11.246 24.4797 13.1243 24.8356L13.3005 22.821C11.9347 22.5312 10.6354 21.8851 9.55909 20.8824ZM15.6338 15.7851L19.464 12.5712L18.1785 11.0391L14.3482 14.253L11.7771 11.1888L11.1608 18.233L18.205 18.8493L15.6338 15.7851ZM8.27352 19.3503L6.72611 20.6488C3.86305 16.4588 4.58739 10.6947 8.56316 7.35863C12.5389 4.02256 18.3413 4.31016 21.9704 7.85729L20.423 9.15572C17.5086 6.44481 12.9742 6.26814 9.84874 8.89072C6.72327 11.5133 6.10987 16.0095 8.27352 19.3503Z" fill="#4ECB71"/>
<path d="M21.8472 9.26611C25.0422 13.0738 24.5455 18.7506 20.7379 21.9456C16.9302 25.1406 11.2534 24.644 8.05837 20.8363" stroke="#4ECB71" stroke-width="2" stroke-linecap="round"/>
<path d="M8.0583 20.8362C4.86329 17.0285 5.35991 11.3517 9.16761 8.15667C12.9753 4.96166 18.6521 5.45831 21.8471 9.26598" stroke="#4ECB71" stroke-width="2" stroke-linecap="round"/>
<path d="M18.0168 12.48L12.2715 17.3009" stroke="#4ECB71" stroke-width="2" stroke-linecap="round"/>
<path d="M17.2024 17.7324L12.2715 17.301L12.7029 12.3701" stroke="#4ECB71" stroke-width="2" stroke-linecap="round"/>
</svg>
