<svg width="193" height="38" viewBox="0 0 193 38" fill="none" xmlns="http://www.w3.org/2000/svg">
<path d="M192 0V38H194V0H192Z" fill="white" fill-opacity="0.2" mask="url(#path-1-inside-1_298_3314)"/>
<g clip-path="url(#clip0_298_3314)">
<g clip-path="url(#clip1_298_3314)">
<g clip-path="url(#clip2_298_3314)">
<path fill-rule="evenodd" clip-rule="evenodd" d="M79.9522 9.12031C79.9171 9.04289 79.8609 8.97689 79.7901 8.92981C79.7193 8.88273 79.6368 8.85647 79.5518 8.85402H79.3296C79.2431 8.84969 79.1576 8.87322 79.0855 8.92116C79.0134 8.96909 78.9586 9.0389 78.9292 9.12031L71.3756 25.5187C71.3399 25.5852 71.3227 25.6601 71.3256 25.7356C71.3286 25.811 71.3517 25.8843 71.3926 25.9478C71.4334 26.0113 71.4905 26.0627 71.5579 26.0968C71.6253 26.1308 71.7006 26.1462 71.776 26.1413H73.9081C74.0645 26.1516 74.2198 26.1088 74.3488 26.0198C74.4779 25.9307 74.573 25.8008 74.6189 25.6509L75.8181 23.0302H83.1073L84.3066 25.6509C84.4847 26.0072 84.6629 26.1413 85.0173 26.1413H87.1514C87.5058 26.1413 87.7261 25.829 87.5498 25.5187L79.9522 9.12031ZM76.9292 20.3157L79.3296 14.9823H79.4177L81.8621 20.3157H76.9292ZM45.706 8.92979C45.7768 8.97686 45.833 9.04286 45.8681 9.12028L53.4581 25.5187C53.6343 25.829 53.414 26.1413 53.0596 26.1413H50.9255C50.5711 26.1413 50.393 26.0072 50.2148 25.6509L49.0156 23.0302H41.7359L40.5348 25.6509C40.4889 25.8007 40.3938 25.9307 40.2648 26.0197C40.1357 26.1088 39.9804 26.1516 39.824 26.1413H37.6919C37.6165 26.1461 37.5412 26.1308 37.4738 26.0967C37.4064 26.0627 37.3493 26.0113 37.3085 25.9478C37.2676 25.8843 37.2445 25.811 37.2415 25.7355C37.2386 25.6601 37.2558 25.5852 37.2915 25.5187L44.8451 9.12028C44.8748 9.03905 44.9296 8.96941 45.0016 8.92152C45.0737 8.87362 45.1591 8.84997 45.2455 8.854H45.4677C45.5527 8.85645 45.6352 8.88271 45.706 8.92979ZM45.2455 14.9823L42.8451 20.3156H47.7838L45.3336 14.9823H45.2455ZM66.7971 9.12027H69.0193C69.0785 9.1166 69.1378 9.1256 69.1933 9.14666C69.2488 9.16773 69.2992 9.20037 69.341 9.24243C69.3829 9.28448 69.4153 9.33498 69.4362 9.39055C69.457 9.44612 69.4657 9.5055 69.4618 9.56471V25.919C69.4613 26.0368 69.4143 26.1495 69.3311 26.2327C69.2478 26.316 69.1351 26.363 69.0174 26.3635H68.4427L58.2665 15.2084H58.2224V25.6508C58.2219 25.7686 58.1749 25.8813 58.0917 25.9646C58.0084 26.0478 57.8957 26.0948 57.778 26.0953H55.5557C55.4404 26.0876 55.3317 26.0384 55.25 25.9566C55.1682 25.8749 55.1189 25.7662 55.1113 25.6508V9.29843C55.1118 9.18071 55.1588 9.06796 55.242 8.98472C55.3253 8.90148 55.438 8.85449 55.5557 8.85399H56.1764L66.3086 19.6087H66.3545V9.56471C66.3545 9.44717 66.4011 9.33441 66.484 9.25112C66.567 9.16783 66.6795 9.12078 66.7971 9.12027ZM100.438 21.6681C100.552 21.6681 100.663 21.7096 100.749 21.785L102.214 23.3405C102.294 23.4361 102.334 23.5586 102.326 23.6826C102.317 23.8067 102.262 23.9229 102.17 24.0072C100.59 25.5439 98.4647 26.3912 96.2605 26.3635C95.1108 26.3635 93.9724 26.137 92.9102 25.6971C91.848 25.2571 90.8829 24.6122 90.07 23.7993C89.257 22.9863 88.6121 22.0212 88.1722 20.959C87.7322 19.8969 87.5057 18.7584 87.5057 17.6087C87.5057 16.459 87.7322 15.3206 88.1722 14.2584C88.6121 13.1963 89.257 12.2312 90.07 11.4182C90.8829 10.6052 91.848 9.96037 92.9102 9.5204C93.9724 9.08044 95.1108 8.85399 96.2605 8.85399C98.7049 8.85399 100.483 9.65475 102.126 11.1203C102.176 11.1589 102.217 11.2078 102.247 11.2635C102.277 11.3193 102.294 11.3807 102.298 11.4437C102.303 11.5067 102.293 11.5699 102.271 11.629C102.249 11.6882 102.215 11.742 102.17 11.7869L100.705 13.2984C100.665 13.3407 100.617 13.3743 100.563 13.3973C100.51 13.4203 100.452 13.4322 100.394 13.4322C100.335 13.4322 100.278 13.4203 100.224 13.3973C100.171 13.3743 100.122 13.3407 100.082 13.2984C99.0478 12.3933 97.7231 11.889 96.3486 11.877C93.2394 11.877 90.9272 14.4996 90.9272 17.5647C90.9272 20.5857 93.2835 23.1623 96.3946 23.1623C97.7628 23.1621 99.0861 22.6737 100.126 21.785C100.213 21.7096 100.323 21.6681 100.438 21.6681ZM112.259 8.85407C110.529 8.85372 108.838 9.36576 107.399 10.3256C105.96 11.2854 104.837 12.65 104.173 14.2471C103.509 15.8442 103.333 17.6023 103.667 19.2995C104.001 20.9966 104.83 22.5568 106.05 23.7831C107.27 25.0094 108.826 25.8469 110.521 26.1898C112.216 26.5327 113.975 26.3657 115.576 25.7099C117.177 25.0541 118.547 23.9388 119.514 22.5049C120.482 21.071 121.003 19.3826 121.011 17.6529C121.023 16.4982 120.804 15.3528 120.369 14.2832C119.933 13.2136 119.29 12.2413 118.475 11.4226C117.661 10.6039 116.692 9.95524 115.625 9.5143C114.558 9.07337 113.413 8.84894 112.259 8.85407ZM112.259 23.2084C110.797 23.1813 109.405 22.5818 108.381 21.5387C107.357 20.4957 106.783 19.0925 106.783 17.6309C106.783 16.1692 107.357 14.766 108.381 13.723C109.405 12.6799 110.797 12.0804 112.259 12.0533C113 12.0396 113.736 12.1737 114.425 12.4478C115.114 12.7219 115.741 13.1306 116.27 13.6499C116.799 14.1692 117.219 14.7887 117.506 15.4722C117.793 16.1557 117.94 16.8896 117.94 17.6309C117.94 18.3721 117.793 19.106 117.506 19.7895C117.219 20.473 116.799 21.0926 116.27 21.6118C115.741 22.1311 115.114 22.5398 114.425 22.8139C113.736 23.088 113 23.2221 112.259 23.2084ZM135.366 9.12027H137.588C137.703 9.1288 137.81 9.17847 137.891 9.26013C137.972 9.3418 138.021 9.44996 138.028 9.56471V25.919C138.028 26.0368 137.981 26.1495 137.898 26.2327C137.814 26.316 137.702 26.363 137.584 26.3635H137.009L126.833 15.2084H126.789V25.6508C126.789 25.7686 126.742 25.8813 126.658 25.9646C126.575 26.0478 126.462 26.0948 126.345 26.0953H124.122C124.007 26.0876 123.898 26.0384 123.817 25.9566C123.735 25.8749 123.686 25.7662 123.678 25.6508V9.29843C123.678 9.18071 123.725 9.06796 123.809 8.98472C123.892 8.90148 124.005 8.85449 124.122 8.85399H124.745L134.877 19.6087H134.921V9.56471C134.922 9.44699 134.969 9.33424 135.052 9.251C135.135 9.16776 135.248 9.12078 135.366 9.12027ZM147.32 9.12097H141.542C141.427 9.12861 141.318 9.17789 141.236 9.25964C141.154 9.34139 141.105 9.45005 141.097 9.56541V25.6573C141.098 25.775 141.145 25.8878 141.228 25.971C141.311 26.0542 141.424 26.1012 141.542 26.1017H147.32C149.582 26.1017 151.752 25.203 153.352 23.6033C154.953 22.0035 155.852 19.8338 155.852 17.5711C155.852 12.9428 152.03 9.12097 147.32 9.12097ZM147.053 23.163H144.253V12.052H147.017C150.172 12.052 152.482 14.4524 152.482 17.6075C152.519 20.7646 150.209 23.163 147.053 23.163ZM164.605 9.20449L172.113 25.5626C172.145 25.6237 172.162 25.6916 172.162 25.7605C172.162 25.8295 172.145 25.8974 172.114 25.9586C172.082 26.0198 172.036 26.0723 171.979 26.1118C171.923 26.1513 171.857 26.1765 171.789 26.1852H169.657C169.3 26.1852 169.124 26.0511 168.946 25.6967L167.745 23.0742H160.465L159.266 25.6967C159.219 25.8459 159.124 25.9751 158.995 26.0636C158.866 26.1522 158.711 26.195 158.555 26.1852H156.421C156.346 26.1895 156.271 26.1737 156.204 26.1395C156.137 26.1053 156.08 26.054 156.039 25.9907C155.999 25.9274 155.976 25.8544 155.972 25.7792C155.969 25.704 155.986 25.6293 156.021 25.5626L163.584 9.20449C163.613 9.12291 163.668 9.05292 163.74 9.00495C163.812 8.95697 163.898 8.93356 163.984 8.9382H164.207C164.291 8.93988 164.374 8.96584 164.445 9.01304C164.515 9.06023 164.571 9.12667 164.605 9.20449ZM164.028 14.9861L161.628 20.3155H166.557L164.116 14.9861H164.028ZM175.138 25.8725H175.272C175.295 25.8711 175.316 25.8614 175.332 25.8452C175.349 25.8289 175.358 25.8073 175.36 25.7844V25.3399H175.626L175.804 25.8284C175.804 25.8725 175.848 25.8725 175.892 25.8725H176.07C176.094 25.8712 176.115 25.8615 176.132 25.8453C176.149 25.8291 176.159 25.8075 176.161 25.7844C176.115 25.7163 176.081 25.6375 176.047 25.5587C176.014 25.4823 175.982 25.4059 175.938 25.3399C176.031 25.3093 176.112 25.2495 176.167 25.1694C176.223 25.0892 176.252 24.9931 176.249 24.8955C176.252 24.8305 176.242 24.7655 176.218 24.7047C176.195 24.6439 176.159 24.5888 176.113 24.5427C176.067 24.4967 176.012 24.4608 175.951 24.4374C175.89 24.4141 175.825 24.4037 175.76 24.407H175.185C175.163 24.4083 175.141 24.4181 175.125 24.4343C175.108 24.4505 175.099 24.4722 175.097 24.4951V25.7844C175.095 25.8383 175.094 25.8592 175.104 25.8673C175.11 25.8725 175.12 25.8725 175.138 25.8725ZM175.36 24.6733H175.716C175.74 24.6712 175.764 24.6744 175.786 24.6826C175.809 24.6909 175.829 24.7039 175.846 24.721C175.863 24.738 175.876 24.7585 175.884 24.781C175.892 24.8036 175.895 24.8276 175.892 24.8514C175.889 24.8973 175.87 24.9406 175.837 24.9733C175.805 25.006 175.762 25.026 175.716 25.0296H175.369L175.36 24.6733ZM176.129 26.4831C175.955 26.5539 175.769 26.5891 175.582 26.5868C175.301 26.5868 175.026 26.5035 174.792 26.3474C174.559 26.1913 174.377 25.9694 174.269 25.7097C174.161 25.4501 174.133 25.1644 174.188 24.8887C174.242 24.613 174.378 24.3598 174.576 24.1609C174.775 23.962 175.028 23.8265 175.303 23.7714C175.579 23.7164 175.865 23.7442 176.125 23.8515C176.384 23.9588 176.607 24.1407 176.763 24.3742C176.919 24.6077 177.003 24.8824 177.003 25.1634C177.006 25.3509 176.971 25.537 176.9 25.7107C176.83 25.8844 176.725 26.0423 176.593 26.1749C176.46 26.3076 176.303 26.4124 176.129 26.4831ZM176.221 24.1579C176.032 24.0316 175.809 23.9642 175.582 23.9642V23.9565C175.278 23.9634 174.988 24.0878 174.774 24.3035C174.56 24.5192 174.437 24.8096 174.433 25.1136C174.433 25.3409 174.5 25.5632 174.626 25.7522C174.753 25.9412 174.932 26.0885 175.142 26.1755C175.352 26.2625 175.583 26.2853 175.806 26.2409C176.029 26.1966 176.234 26.0871 176.395 25.9264C176.555 25.7656 176.665 25.5608 176.709 25.3379C176.754 25.1149 176.731 24.8838 176.644 24.6737C176.557 24.4637 176.41 24.2842 176.221 24.1579Z" fill="white"/>
<path fill-rule="evenodd" clip-rule="evenodd" d="M15.3396 2.5C14.7649 2.5 14.1902 2.54406 13.6499 2.58812C14.4538 3.13467 15.2117 3.74589 15.9162 4.4157L16.4909 4.95018L15.9162 5.52489C15.4092 5.99648 14.9344 6.50143 14.4948 7.03638V7.08044C14.4158 7.16499 14.3416 7.25389 14.2725 7.34672C14.627 7.31005 14.9833 7.29534 15.3396 7.30266C18.0262 7.33944 20.5903 8.4325 22.4771 10.3453C24.364 12.2582 25.4218 14.837 25.4218 17.5239C25.4218 20.2107 24.364 22.7895 22.4771 24.7024C20.5903 26.6152 18.0262 27.7083 15.3396 27.7451C13.4546 27.756 11.6052 27.2319 10.0063 26.2336C9.23935 26.3222 8.46799 26.367 7.69595 26.3677C7.33965 26.3753 6.98323 26.36 6.62891 26.3217C6.67006 27.5262 6.77429 28.7277 6.94117 29.9213C9.41419 31.613 12.3433 32.5123 15.3396 32.4999C17.3094 32.4999 19.2599 32.1119 21.0798 31.358C22.8997 30.6042 24.5533 29.4993 25.9461 28.1065C27.339 26.7136 28.4439 25.06 29.1977 23.2401C29.9515 21.4203 30.3395 19.4697 30.3395 17.4999C30.3395 15.5301 29.9515 13.5796 29.1977 11.7597C28.4439 9.93983 27.339 8.28625 25.9461 6.89338C24.5533 5.5005 22.8997 4.39562 21.0798 3.6418C19.2599 2.88799 17.3094 2.5 15.3396 2.5ZM7.20729 4.8996C8.23333 4.23362 9.3374 3.69638 10.4946 3.29999C10.1166 3.99263 9.77448 4.7043 9.46973 5.43217C8.72614 5.21247 7.9708 5.03467 7.20729 4.8996ZM6.36398 10.3536C6.96384 10.3135 7.53383 10.2755 8.14028 10.2755C7.51181 10.8766 6.97309 11.565 6.54067 12.3195C6.37924 11.6767 6.26021 11.024 6.18435 10.3655L6.36398 10.3536ZM5.82996 25.4306V25.5187L5.69586 25.4785C4.55242 25.3819 3.42121 25.1734 2.31849 24.8559L2.23036 24.8119L2.27443 24.7218C2.61551 23.6588 3.03096 22.6211 3.51771 21.6165L3.56369 21.5264L3.65181 21.5705C4.39941 21.9973 5.17078 22.3811 5.96215 22.7199L6.05218 22.764V22.8521C5.90981 23.7043 5.83551 24.5666 5.82996 25.4306ZM5.82993 26.3172V26.2291H5.73989C4.76752 26.1278 3.80261 25.9647 2.85102 25.7406L2.58473 25.6965L2.71883 25.9187C3.58922 27.2268 4.65304 28.3953 5.87399 29.3842L6.05215 29.5624V29.2501C5.91638 28.2781 5.84216 27.2985 5.82993 26.3172ZM14.2724 5.03203C13.9621 5.34429 13.6498 5.69869 13.3395 6.05501C13.3012 6.09907 13.0732 6.36535 12.805 6.72359C12.1839 6.42841 11.5473 6.17432 10.9164 5.92248L10.8069 5.87877C11.1579 5.01841 11.5735 4.18589 12.0502 3.38836C12.8193 3.89685 13.5611 4.4455 14.2724 5.03203ZM3.16333 14.6322L3.20739 14.7203L3.29551 14.6763C3.99506 14.1765 4.72226 13.7167 5.47366 13.2989L5.56178 13.2548V13.1648C5.33145 12.3058 5.16813 11.4303 5.07328 10.546V10.456H4.98516C3.8797 10.6576 2.79387 10.955 1.73996 11.3449L1.65184 11.3889L1.6959 11.479C2.04748 12.5888 2.54068 13.6486 3.16333 14.6322ZM2.89697 16.1422L2.98509 16.0541L3.03873 16.1805C3.52191 16.8592 4.04117 17.5115 4.59427 18.1345L4.63834 18.1786L4.59427 18.2686C4.10663 18.9224 3.65883 19.605 3.25329 20.3127L3.20922 20.4008L3.1211 20.3567C2.2539 19.7858 1.42223 19.1627 0.630693 18.4908L0.540655 18.4008L0.630693 18.3203C1.32991 17.538 2.08751 16.8098 2.89697 16.1422ZM8.89512 25.5638H9.1614L8.93918 25.3856C8.13336 24.7353 7.4424 23.9543 6.89513 23.0753V23.0312L6.71889 22.9412V23.0753C6.61305 23.8565 6.55356 24.6433 6.54073 25.4316V25.5197H6.62885C6.80701 25.5197 6.98469 25.5307 7.16237 25.5417C7.34005 25.5528 7.51773 25.5638 7.69589 25.5638H8.89512ZM9.02918 6.76681C8.77505 7.47872 8.56708 8.20628 8.40658 8.94496C7.63462 8.94247 6.86318 8.98533 6.09624 9.07331C6.04518 8.09578 6.0599 7.11593 6.1403 6.14037C7.11676 6.28121 8.0821 6.49054 9.02918 6.76681ZM9.828 8.89744C10.4928 8.49534 11.1923 8.15362 11.918 7.87637C11.4005 7.61686 10.8653 7.39409 10.3165 7.20971C10.1403 7.74227 9.9621 8.32081 9.828 8.89744ZM2.76483 21.0828H2.85104L2.80889 21.2591C2.40821 22.0692 2.052 22.9006 1.74185 23.7495L1.65372 23.9717L1.5656 23.7495C0.950708 22.4283 0.545465 21.0193 0.364458 19.5733L0.320397 19.3051L0.542618 19.4832C1.25395 20.0561 1.99577 20.5901 2.76483 21.0828ZM4.76291 6.85484C3.86954 7.74507 3.09318 8.74545 2.45257 9.83184C3.20171 9.61128 3.99614 9.43601 4.78904 9.26108L4.80697 9.25713C4.76291 8.45445 4.76291 7.6556 4.76291 6.85484ZM5.20733 17.1201V17.3863L5.08089 17.1622C4.74381 16.7917 4.43317 16.3694 4.12808 15.9546C4.03095 15.8226 3.93428 15.6912 3.83761 15.5626L3.70351 15.4726L3.79355 15.4285C4.34525 15.0441 4.89696 14.7022 5.44866 14.3602L5.51767 14.3174L5.73989 14.1852L5.65177 14.4534C5.38898 15.3193 5.23959 16.2157 5.20733 17.1201ZM5.33956 18.9429L5.2955 18.6766L5.16331 18.8988C4.76293 19.4735 4.36255 20.098 4.01389 20.7206L3.96792 20.8088L4.05796 20.8528C4.66149 21.1993 5.30849 21.5023 5.95669 21.8059L6.01197 21.8318L6.23419 21.9199L6.14607 21.6977C5.74401 20.8238 5.47228 19.8956 5.33956 18.9429ZM2.49663 15.2905L2.40659 15.3346C1.68078 15.8765 1.0245 16.5057 0.452574 17.2081L0.274414 17.3863V17.12C0.308046 15.6858 0.547396 14.2639 0.985138 12.8978L1.07518 12.6315L1.1633 12.8537C1.54906 13.6594 1.97948 14.4428 2.45256 15.2005L2.49663 15.2905Z" fill="#43B049"/>
</g>
</g>
</g>
<defs>
<clipPath id="clip0_298_3314">
<rect width="178" height="33" fill="white" transform="translate(0 2.5)"/>
</clipPath>
<clipPath id="clip1_298_3314">
<rect width="178" height="30" fill="white" transform="translate(0 2.5)"/>
</clipPath>
<clipPath id="clip2_298_3314">
<rect width="178" height="30" fill="white" transform="translate(0 2.5)"/>
</clipPath>
</defs>
</svg>
