<svg width="161" height="126" viewBox="0 0 161 126" fill="none" xmlns="http://www.w3.org/2000/svg">
<path fill-rule="evenodd" clip-rule="evenodd" d="M154.055 67.4545L154.349 66.8518H154.634V67.6722H154.448V67.0048H154.443L154.116 67.6722H153.99L153.663 67.0048H153.658V67.6722H153.472V66.8518H153.755L154.055 67.4545ZM153.291 66.9714H152.969V67.6722H152.783V66.9714H152.461V66.8518H153.29L153.291 66.9714Z" fill="black"/>
<path fill-rule="evenodd" clip-rule="evenodd" d="M64.2374 56.52H68.182V57.5783C68.6056 57.288 69.9712 56.2598 72.4978 56.2598C75.4695 56.2598 77.8296 57.9836 77.8296 60.6885V67.7096H73.662V61.5572C73.662 60.0505 72.7275 59.1556 71.0331 59.1556C69.3895 59.1556 68.4017 59.9988 68.4017 61.5572V67.7096H64.2374V56.52ZM108.021 62.1148C108.021 60.5669 109.494 59.2968 111.538 59.2968C113.585 59.2968 115.056 60.5669 115.056 62.1148C115.056 63.6614 113.585 64.9328 111.538 64.9328C109.493 64.9328 108.021 63.662 108.021 62.1148ZM103.911 62.1148C103.911 65.3426 107.204 67.9639 111.511 67.9639C115.822 67.9639 119.111 65.342 119.111 62.1148C119.111 58.8876 115.822 56.2598 111.511 56.2598C107.204 56.2598 103.911 58.8876 103.911 62.1148ZM50.8217 62.1154C50.8217 60.5682 52.2938 59.2974 54.3377 59.2974C56.3841 59.2974 57.8554 60.5675 57.8554 62.1154C57.8554 63.662 56.3841 64.9341 54.3377 64.9341C52.293 64.9347 50.8217 63.6627 50.8217 62.1154ZM46.709 62.1161C46.709 65.3439 50.002 67.9652 54.3102 67.9652C58.6193 67.9652 61.9115 65.3433 61.9115 62.1161C61.9115 58.8889 58.6193 56.2605 54.3102 56.2605C50.002 56.2605 46.709 58.8889 46.709 62.1161ZM139.313 56.52H143.535V67.7103H139.313V56.52ZM139.313 52.4319H143.535V55.2786H139.313V52.4319ZM146.791 52.4319H151.013V67.7103H146.791V52.4319ZM132.58 62.1089C132.58 63.6869 131.037 64.9125 129.023 64.9125C126.983 64.9125 125.45 63.6908 125.45 62.1168C125.45 60.5231 127.002 59.3151 129.026 59.3151C131.06 59.3151 132.58 60.5342 132.58 62.1089ZM125.557 67.7103L125.599 66.8494C125.895 67.0245 127.199 67.9665 129.931 67.9665C133.522 67.9665 136.855 65.4394 136.855 62.1168C136.855 58.7882 133.727 56.2611 129.977 56.2611C127.114 56.2611 125.8 57.2926 125.598 57.4077V52.4325H121.55V67.7109L125.557 67.7103Z" fill="#AAB8C2"/>
<path fill-rule="evenodd" clip-rule="evenodd" d="M22.1556 67.7103L28.7973 61.1807L22.9203 56.52H28.7548L31.3588 58.63L36.1547 53.7817H41.0455L34.0218 60.7303L36.7564 62.8874L43.0702 56.52H47.9726L39.4294 64.9995L50.2778 73.5678H44.3626L36.8138 67.5338L32.8026 71.6166H27.901L34.1649 65.4557L31.4278 63.2796L27.0397 67.7103H22.1556ZM8.37695 52.4319H21.1869V55.2793H12.7343V58.4464H20.8066V61.2094H12.7343V64.8589H21.1869V67.7103H8.37695V52.4319ZM81.1621 52.4319H88.0502L91.299 63.5843H91.4472L94.7793 52.4319H101.471V67.7103H97.3749V56.1748H97.1876L93.5776 67.7103H88.9747L85.4479 56.1748H85.2623V67.7103H81.1621V52.4319Z" fill="#AAB8C2"/>
</svg>
