<svg width="108" height="70" viewBox="0 0 108 70" fill="none" xmlns="http://www.w3.org/2000/svg">
<path d="M33.2347 56.0031L33.0392 56.1925C29.9693 59.3204 26.4168 60.9729 22.7574 60.9729C15.1147 60.9729 9.57058 55.2394 9.57058 47.331C9.57058 39.4348 15.1147 33.6921 22.7574 33.6921C26.4168 33.6921 29.9693 35.3538 33.0392 38.494L33.2347 38.6803L38.1496 32.736L38.0182 32.5772C33.9312 27.7478 29.0254 25.3988 22.9956 25.3988C16.9505 25.3988 11.4156 27.4363 7.43235 31.1049C3.09479 35.082 0.812988 40.6903 0.812988 47.331C0.812988 53.9717 3.09479 59.5922 7.43235 63.5694C11.4156 67.2593 16.9505 69.2815 22.9956 69.2815C29.0254 69.2815 33.9312 66.9294 38.0182 62.097L38.1496 61.9504L33.2347 56.0031Z" fill="#AAB8C2"/>
<path d="M43.1138 68.4707H51.7949V26.0848H43.1138V68.4707Z" fill="#AAB8C2"/>
<path d="M85.8066 59.2566C83.4882 60.6678 81.3347 61.3796 79.3981 61.3796C76.5909 61.3796 75.3201 59.895 75.3201 56.596V34.1049H84.1694V26.1262H75.3201V12.9364L66.813 17.4939V26.1262H59.4697V34.1049H66.813V58.0286C66.813 64.5442 70.6741 69.0039 76.4412 69.12C80.3542 69.1963 82.7123 68.0295 84.1419 67.1742L84.2335 67.1161L86.3198 58.942L85.8066 59.2566Z" fill="#AAB8C2"/>
<path d="M92.9927 68.4707H101.686V26.0848H92.9927V68.4707Z" fill="#AAB8C2"/>
<path d="M106.75 18.6551C98.8169 7.42021 85.6453 0.718376 72.2447 0.718376C58.8472 0.718376 45.6726 7.42021 37.755 18.6551L37.3457 19.2324H47.3343L47.4443 19.1133C54.2408 12.0938 63.1175 8.38547 72.2447 8.38547C81.3719 8.38547 90.2425 12.0938 97.0543 19.1133L97.1643 19.2324H107.147L106.75 18.6551Z" fill="#AAB8C2"/>
</svg>
