<svg width="161" height="44" viewBox="0 0 161 44" fill="none" xmlns="http://www.w3.org/2000/svg">
<g clip-path="url(#clip0_180_3455)">
<path d="M86.7807 22.0507L65.2007 0.419922V43.6307L86.7807 22.0507Z" fill="#AAB8C2"/>
<path d="M43.621 22.0507L65.201 0.419922H22.041L43.621 22.0507Z" fill="#AAB8C2"/>
<path d="M0.410156 22.0507L22.0409 43.6307V0.419922L0.410156 22.0507Z" fill="#AAB8C2"/>
<path d="M43.621 22.0508L22.041 43.6308H65.201L43.621 22.0508Z" fill="#AAB8C2"/>
<path d="M105.721 23.3201H97.901V31.0381H93.9912V12.9617H97.901V20.375H105.721V12.9617H109.63V31.0381H105.721V23.3201Z" fill="#AAB8C2"/>
<path d="M119.075 31.3935C115.165 31.3935 111.966 29.8194 111.915 25.5034H115.825C115.876 27.4329 116.993 28.6008 119.125 28.6008C120.699 28.6008 122.527 27.7884 122.527 26.0112C122.527 24.5895 121.309 24.1832 119.278 23.5739L117.957 23.2185C115.114 22.4061 112.27 21.289 112.27 18.0393C112.27 14.0279 116.028 12.657 119.43 12.657C122.934 12.657 125.98 13.8756 126.031 17.887H122.121C121.969 16.2621 121.004 15.2974 119.176 15.2974C117.704 15.2974 116.282 16.059 116.282 17.6839C116.282 19.004 117.5 19.4103 120.039 20.2227L121.563 20.6797C124.66 21.6444 126.64 22.7107 126.64 25.7573C126.589 29.8194 122.629 31.3935 119.075 31.3935Z" fill="#AAB8C2"/>
<path d="M128.824 13.0125H135.12C136.288 12.9617 137.507 13.0125 138.674 13.2156C140.858 13.7233 142.533 15.1451 142.533 17.5823C142.533 19.9181 141.061 21.0859 138.928 21.6445C141.366 22.1014 143.193 23.3201 143.193 26.0112C143.193 30.1241 139.131 31.0381 135.983 31.0381H128.875L128.824 13.0125ZM135.12 20.5274C136.846 20.5274 138.624 20.1719 138.624 18.0901C138.624 16.2114 136.999 15.7036 135.374 15.7036H132.632V20.5274H135.12ZM135.475 28.3469C137.303 28.3469 139.081 27.9407 139.081 25.7066C139.081 23.4724 137.557 23.0662 135.679 23.0662H132.581V28.3469H135.475Z" fill="#AAB8C2"/>
<path d="M153.349 31.3935C147.51 31.3935 144.92 27.6868 144.92 22.1522C144.92 16.6175 147.814 12.6062 153.552 12.6062C157.157 12.6062 160.661 14.231 160.762 18.2932H156.7C156.497 16.4652 155.278 15.5512 153.552 15.5512C149.998 15.5512 148.931 19.3595 148.931 22.2537C148.931 25.148 149.998 28.4992 153.4 28.4992C155.177 28.4992 156.497 27.5345 156.751 25.7065H160.813C160.407 29.8702 157.106 31.3935 153.349 31.3935Z" fill="#AAB8C2"/>
</g>
<defs>
<clipPath id="clip0_180_3455">
<rect width="160.403" height="43.16" fill="white" transform="translate(0.410156 0.419922)"/>
</clipPath>
</defs>
</svg>
