<svg width="158" height="60" viewBox="0 0 158 60" fill="none" xmlns="http://www.w3.org/2000/svg">
<path d="M13.3719 14.3754H22.842V27.9532C19.6798 28.514 17.2581 28.7981 14.6035 28.7981C4.21796 28.7981 0.556396 23.5899 0.556396 15.0164C0.556396 5.80194 5.63266 0.59375 15.7519 0.59375C17.0335 0.59375 19.4551 0.673876 22.4759 1.07451V9.76454H20.2789L19.039 6.44295C17.849 3.28162 16.4343 1.71552 14.1874 1.71552C10.3012 1.71552 8.23737 6.31912 8.23737 14.9363C8.23737 23.5899 9.06122 27.6764 14.1375 27.6764C14.8282 27.6764 15.6437 27.5962 16.426 27.3996V17.2964L13.3636 15.4535V14.3754H13.3719ZM22.659 50.8255C22.659 56.2741 18.4065 59.399 10.9003 59.399C8.84486 59.399 5.82406 59.1222 2.98635 58.7143V48.0648H5.18329L6.09868 50.5851C8.15415 56.3906 9.61878 58.3137 12.2318 58.3137C14.978 58.3137 16.9419 56.194 16.9419 53.3896C16.9419 51.1096 15.7103 49.5071 13.0557 48.2615L8.4787 46.0981C4.95028 44.4591 3.02795 41.8951 3.02795 38.7702C3.02795 34.0427 7.46345 31.2019 14.745 31.2019C16.3927 31.2019 18.315 31.3257 21.3774 31.6827V40.3727H19.1805L17.9488 37.0511C16.7089 33.5256 15.3857 32.2435 12.9641 32.2435C10.2596 32.2435 8.66178 33.7659 8.66178 35.9658C8.66178 37.9252 9.90172 39.3311 12.3233 40.533L16.9419 42.8129C20.8282 44.7359 22.659 47.3 22.659 50.8255ZM42.8891 57.1191L43.8045 58.3209V58.9255H36.8059L36.4814 56.6019C35.7491 58.3646 33.8267 59.4063 31.3552 59.4063C27.6936 59.4063 25.4051 57.4031 25.4051 54.118C25.4051 50.9129 27.4606 48.7932 33.7768 46.6298L36.4731 45.712V42.7109C36.4731 40.0668 35.9238 38.9887 34.2345 38.9887C32.8614 38.9887 32.0875 39.6297 30.756 42.5507L29.2498 45.8213H27.1943V39.2874C29.8906 38.5662 32.5951 38.0855 34.9252 38.0855C40.093 38.0855 42.8891 40.2489 42.8891 44.1751V57.1191ZM45.5354 18.1414C45.5354 24.9521 41.3746 28.7981 36.0154 28.7981C30.6645 28.7981 26.5036 24.9521 26.5036 18.1414C26.5036 11.3306 30.6645 7.48459 36.0237 7.48459C41.3746 7.48459 45.5354 11.3306 45.5354 18.1414ZM36.4814 53.7538V46.8265L35.6159 47.147C32.9113 48.1085 31.9044 50.2719 31.9044 53.4333C31.9044 55.8006 32.5452 57.1555 34.0514 57.1555C35.5577 57.1555 36.4814 55.8735 36.4814 53.7538ZM38.8115 18.1414C38.8115 10.4493 38.0792 8.40968 36.0237 8.40968C33.9682 8.40968 33.2359 10.4493 33.2359 18.1414C33.2359 25.8335 33.9682 27.873 36.0237 27.873C38.0792 27.873 38.8115 25.8335 38.8115 18.1414ZM61.7878 53.9504L62.6117 54.3146C61.147 58.0004 59.2746 59.399 55.6547 59.399C49.7546 59.399 46.4591 55.5165 46.4591 48.7422C46.4591 41.9752 50.3038 38.0855 56.5701 38.0855C58.2594 38.0855 60.5063 38.3258 62.4286 39.0033V45.814H60.2816L59.4161 43.25C58.2677 39.8482 57.6353 38.9669 56.4869 38.9669C54.6561 38.9669 53.1914 41.0501 53.1914 48.9826C53.1914 55.349 54.2899 57.6727 57.0777 57.6727C58.9501 57.6799 60.5479 56.6383 61.7878 53.9504ZM56.7032 28.3174H48.4647V27.7201L49.3801 26.5182V4.163L48.4647 2.96111V2.35652L55.7878 1.87577V26.5109L56.7032 27.7128V28.3174ZM67.9625 28.7981C62.9279 28.7981 59.9071 24.7918 59.9071 17.9447C59.9071 11.134 63.061 7.49188 67.9126 7.49188C70.3842 7.49188 71.7573 8.32956 72.3481 10.0122V4.163L71.4327 2.96111V2.35652L78.7559 1.87577V26.5109L79.6712 27.7128V28.3101H73.172L72.6727 25.2653C71.9487 27.873 70.5756 28.7981 67.9625 28.7981ZM84.0235 57.1191L84.9389 58.3209V58.9255H76.7004V58.3209L77.6158 57.1191V42.6964C77.6158 40.9773 77.0249 39.9357 75.6019 39.9357C73.9043 39.9357 72.6727 41.1813 72.6727 43.6215V57.1191L73.588 58.3209V58.9255H65.3495V58.3209L66.2649 57.1191V34.7639L65.3495 33.562V32.9647L72.6727 32.4839V40.7733C73.4965 39.0543 75.3689 38.0928 78.0235 38.0928C81.7766 38.0928 84.0152 40.176 84.0152 44.2188V57.1191H84.0235ZM66.6394 18.0175C66.6394 25.2289 67.3717 27.4287 69.3856 27.4287C71.8987 27.4287 72.3564 24.2674 72.3564 17.9374C72.3564 11.8114 71.8571 8.76661 69.4272 8.76661C67.3717 8.76661 66.6394 10.93 66.6394 18.0175ZM112.584 26.5109L113.499 27.7128V28.3101H105.261V27.7128L106.176 26.5109V11.6511C106.176 10.2089 105.627 9.32749 104.345 9.32749C102.747 9.32749 101.466 10.5731 101.466 12.9696V26.5109L102.381 27.7128V28.3101H94.1428V27.7128L95.0581 26.5109V11.6511C95.0581 10.2089 94.5089 9.32749 93.2274 9.32749C91.6296 9.32749 90.348 10.5731 90.348 12.9696V26.5109L91.2634 27.7128V28.3101H83.0249V27.7128L83.9403 26.5109V10.2089L83.0249 9.24737V8.65006L89.6157 7.96535H90.165L90.348 10.2089C91.122 8.44611 93.0443 7.48459 95.6573 7.48459C98.4451 7.48459 100.276 8.68648 101.1 10.8499C101.782 8.76661 103.937 7.48459 106.684 7.48459C110.295 7.48459 112.584 9.56787 112.584 13.6106V26.5109ZM104.029 53.0326C104.029 56.5145 101.466 59.399 95.2912 59.399C93.6934 59.399 91.538 59.2388 88.201 58.7143V51.2698H90.0734L90.6643 52.8724C92.1289 56.9588 93.5436 58.4812 95.7905 58.4812C97.8959 58.4812 99.269 57.1555 99.269 55.1159C99.269 53.4333 98.3036 52.2751 96.0235 51.1897L92.0873 49.3468C89.5741 48.1449 88.201 46.2656 88.201 43.942C88.201 40.2999 91.4548 38.0928 96.8473 38.0928C98.4035 38.0928 100.417 38.2894 102.614 38.6901V44.5393H100.742L99.7766 42.4123C98.6781 39.8482 97.6296 39.0106 95.8903 39.0106C94.0179 39.0106 92.9195 39.9721 92.9195 41.5746C92.9195 42.9367 93.8349 43.8545 96.0734 44.9763L99.9597 46.8993C102.606 48.2251 104.029 50.1044 104.029 53.0326ZM133.638 26.5109L134.553 27.7128V28.3101H127.555L127.238 25.9864C126.506 27.7492 124.584 28.7908 122.112 28.7908C118.451 28.7908 116.162 26.7877 116.162 23.5025C116.162 20.2975 118.218 18.1778 124.534 16.0144L127.23 15.0966V12.0955C127.23 9.45132 126.681 8.37326 124.991 8.37326C123.618 8.37326 122.844 9.01427 121.513 11.9352L120.007 15.2204H117.943V8.69377C120.648 7.97263 123.344 7.49188 125.674 7.49188C130.842 7.49188 133.638 9.65528 133.638 13.5815V26.5109ZM127.23 23.1456V16.2183L126.365 16.5388C123.668 17.5004 122.661 19.6638 122.661 22.8251C122.661 25.1925 123.302 26.5546 124.808 26.5546C126.315 26.5546 127.23 25.2726 127.23 23.1456ZM157.155 27.7128V28.3101H148.916V27.7128L149.832 26.5109V12.0882C149.832 10.3618 149.241 9.32749 147.818 9.32749C146.12 9.32749 144.889 10.5731 144.889 13.0133V26.5109L145.804 27.7128V28.3101H137.566V27.7128L138.481 26.5109V10.2089L137.566 9.24737V8.65006L144.156 7.96535H144.706L144.889 10.2089C145.663 8.44611 147.543 7.48459 150.24 7.48459C153.993 7.48459 156.231 9.56787 156.231 13.6106V26.5109L157.155 27.7128Z" fill="#AAB8C2"/>
</svg>
