<svg width="30" height="30" viewBox="0 0 30 30" fill="none" xmlns="http://www.w3.org/2000/svg">
<path d="M24.4321 22.4425C24.6963 22.7067 24.8447 23.065 24.8447 23.4386C24.8447 23.8122 24.6963 24.1705 24.4321 24.4347C24.1679 24.6988 23.8096 24.8473 23.436 24.8473C23.0624 24.8473 22.7041 24.6988 22.4399 24.4347L14.9997 16.9921L7.55713 24.4323C7.29295 24.6965 6.93464 24.8449 6.56103 24.8449C6.18743 24.8449 5.82912 24.6965 5.56494 24.4323C5.30076 24.1681 5.15234 23.8098 5.15234 23.4362C5.15234 23.0626 5.30076 22.7043 5.56494 22.4401L13.0075 14.9999L5.56728 7.55732C5.3031 7.29314 5.15469 6.93484 5.15469 6.56123C5.15469 6.18762 5.3031 5.82932 5.56728 5.56513C5.83146 5.30095 6.18977 5.15254 6.56338 5.15254C6.93698 5.15254 7.29529 5.30095 7.55947 5.56513L14.9997 13.0077L22.4423 5.56396C22.7065 5.29978 23.0648 5.15137 23.4384 5.15137C23.812 5.15137 24.1703 5.29978 24.4345 5.56396C24.6987 5.82814 24.8471 6.18645 24.8471 6.56006C24.8471 6.93366 24.6987 7.29197 24.4345 7.55615L16.9919 14.9999L24.4321 22.4425Z" fill="white"/>
</svg>
