<svg width="161" height="50" viewBox="0 0 161 50" fill="none" xmlns="http://www.w3.org/2000/svg">
<g clip-path="url(#clip0_180_3440)">
<path d="M43.8589 43.8489H44.229C44.4917 43.8489 44.6588 43.9842 44.6588 44.3285C44.6588 44.5653 44.5593 44.8677 44.229 44.8677H43.8589V43.8489ZM43.8589 45.3831H44.0678C44.7106 45.3831 44.6429 45.7552 44.6429 46.187C44.6429 46.4318 44.6429 46.6745 44.7524 46.8954H45.5642C45.4866 46.7442 45.4707 46.0597 45.4707 45.8229C45.4707 45.1682 44.9295 45.1224 44.7524 45.1145V45.0966C45.2936 45.015 45.4866 44.6668 45.4866 44.2031C45.4866 43.5783 45.1245 43.24 44.5593 43.24H43.0311V46.8954H43.8589V45.3831ZM44.2549 41.9406C42.5078 41.9406 41.1069 43.3335 41.1069 45.0806C41.1069 46.8277 42.5078 48.2366 44.2549 48.2366C45.994 48.2366 47.3869 46.8277 47.3869 45.0806C47.3869 43.3335 45.994 41.9406 44.2549 41.9406ZM44.2549 47.6476C42.8361 47.6476 41.6959 46.4915 41.6959 45.0806C41.6959 43.6718 42.8361 42.5296 44.2549 42.5296C45.6458 42.5296 46.796 43.6718 46.796 45.0806C46.796 46.4915 45.6458 47.6476 44.2549 47.6476Z" fill="#AAB8C2"/>
<path d="M25.3181 1.66471C12.4278 1.66471 1.979 12.1135 1.979 24.9998C1.979 37.8882 12.4278 48.335 25.3181 48.335C38.2045 48.335 48.6532 37.8882 48.6532 24.9998C48.6532 12.1135 38.2045 1.66471 25.3181 1.66471ZM12.7661 12.9831L12.774 12.1971C12.784 9.63014 13.8505 7.4771 15.3171 7.08907C17.2333 6.57967 19.8161 8.86005 22.4049 13.3432L24.8107 17.51C24.1103 17.6314 23.5193 18.097 23.0616 18.8929L15.2076 32.5016C14.0595 34.4815 13.2655 36.2664 12.8178 37.8285C12.8158 37.8046 12.8158 37.7807 12.8158 37.7529C12.7362 34.1612 12.6646 26.9499 12.7661 12.9831ZM21.1832 41.8719L20.4987 42.2619C18.268 43.5414 15.8762 43.6926 14.8037 42.6141C13.4048 41.2093 14.0873 37.8325 16.6761 33.3513L19.0878 29.1746C19.5475 29.7277 20.242 30.0024 21.1573 30.0024H36.8653C39.1576 30.0024 41.0977 29.8014 42.6757 29.4114C42.6518 29.4233 42.6339 29.4313 42.61 29.4492C39.5416 31.3097 33.3273 34.987 21.1832 41.8719ZM36.8653 28.305H32.0478C32.2926 27.6304 32.1891 26.8902 31.7314 26.1002L23.8755 12.4955C22.7293 10.5096 21.5831 8.9297 20.4529 7.76165C20.4788 7.77359 20.4987 7.78553 20.5205 7.79946C23.6665 9.52069 29.9465 13.0626 41.9852 20.1346L42.6757 20.5366C44.8964 21.832 46.2216 23.8278 45.8256 25.2943C45.3103 27.2066 42.0449 28.305 36.8653 28.305Z" fill="#AAB8C2"/>
<path d="M70.3416 24.4689H68.0015V13.3973C68.0015 10.7985 68.0015 10.4006 72.9642 10.4006C78.5398 10.4006 81.6102 12.9078 81.6102 17.4606C81.6102 23.6351 75.9132 24.4689 70.3416 24.4689ZM71.0918 7.77194H56.0186H55.6743V9.27031L55.9788 9.30613C61.3454 9.9588 61.8906 10.6632 61.8906 13.4013V41.9299H68.0015V27.0975H70.467C76.2734 27.0975 88.3558 27.0975 88.3558 17.4606C88.3558 7.77194 77.125 7.77194 71.0918 7.77194Z" fill="#AAB8C2"/>
<path d="M122.923 7.77544H119.331V34.3998C118.384 33.0805 100.221 7.77544 100.221 7.77544H87.2549V9.26783L87.5554 9.30763C92.8006 9.99016 93.4712 10.223 93.4712 13.9918V41.9294H97.4072V13.2953C98.3603 14.6186 118.008 41.9294 118.008 41.9294H123.267V7.77544H122.923Z" fill="#AAB8C2"/>
<path d="M127.952 23.7325C127.952 33.057 133.643 42.467 146.356 42.467C152.393 42.467 155.368 41.8024 158.13 41.0622L158.385 40.9945V38.1928L157.917 38.3182C154.982 39.1062 152.097 39.54 149.794 39.54C139.636 39.54 134.697 33.9484 134.697 22.4411C134.697 14.7502 138.355 10.1616 144.479 10.1616C148.589 10.1616 150.998 11.7734 151.645 14.9552L151.701 15.2298H158.43L158.381 14.8418C158.152 13.0569 156.502 7.23452 144.856 7.23452C133.639 7.23452 127.952 12.7843 127.952 23.7325Z" fill="#AAB8C2"/>
</g>
<defs>
<clipPath id="clip0_180_3440">
<rect width="160.41" height="48.5" fill="white" transform="translate(0 0.75)"/>
</clipPath>
</defs>
</svg>
